<svg width="43" height="41" viewBox="0 0 43 41" fill="none" xmlns="http://www.w3.org/2000/svg">
<path d="M41.9737 20.4293C41.9737 31.5213 32.8109 40.5211 21.4982 40.5211C10.1854 40.5211 1.02259 31.5213 1.02259 20.4293C1.02259 9.33726 10.1854 0.337528 21.4982 0.337528C32.8109 0.337528 41.9737 9.33726 41.9737 20.4293Z" fill="black" stroke="white" stroke-width="0.495368"/>
<path d="M11.6686 11.5553C11.4647 11.7598 11.2439 11.9165 11.0062 12.0252C10.7685 12.1289 10.5253 12.1859 10.2765 12.196C10.0251 12.2037 9.78081 12.1619 9.54348 12.0707C9.30615 11.9796 9.0884 11.8388 8.89022 11.6485C8.69204 11.4582 8.54392 11.2476 8.44587 11.0167C8.34781 10.7858 8.30122 10.5482 8.3061 10.3038C8.31093 10.0545 8.36611 9.81211 8.47166 9.57654C8.57466 9.33852 8.72813 9.11723 8.93206 8.91266C9.1534 8.69063 9.3892 8.52643 9.63946 8.42006C9.89221 8.3112 10.1507 8.26397 10.4148 8.27836L10.4138 8.87801C10.2077 8.88025 10.0208 8.91807 9.85311 8.99146C9.6854 9.05991 9.53067 9.16524 9.38891 9.30744C9.25213 9.44465 9.14816 9.59384 9.07701 9.75501C9.00585 9.91618 8.96992 10.0794 8.9692 10.2448C8.96849 10.4101 9.00168 10.5714 9.06876 10.7286C9.13833 10.8833 9.24171 11.0265 9.37892 11.1583C9.51358 11.2876 9.66046 11.3847 9.81956 11.4496C9.98115 11.512 10.1474 11.5422 10.3184 11.5404C10.4868 11.5361 10.651 11.4985 10.8112 11.4277C10.9713 11.3568 11.121 11.2516 11.2603 11.1119C11.3896 10.9821 11.4936 10.8379 11.5723 10.6791C11.651 10.5154 11.6955 10.331 11.7059 10.1261L12.3516 10.2042C12.3266 10.4488 12.2526 10.6902 12.1294 10.9284C12.0063 11.1617 11.8527 11.3707 11.6686 11.5553ZM11.828 10.6023L10.8294 9.64338L11.2883 9.1831L12.3516 10.2042L11.828 10.6023Z" fill="white"/>
<path d="M12.923 7.69305L14.5304 6.7999L14.8129 7.28964L13.2055 8.18279L12.923 7.69305ZM13.7613 9.04049L15.5857 8.02672L15.8735 8.52561L13.4486 9.87303L11.6005 6.66911L13.9607 5.35763L14.2484 5.85652L12.4887 6.83436L13.7613 9.04049Z" fill="white"/>
<path d="M17.2905 8.03819L16.4608 5.03312L15.2761 5.34821L15.1214 4.78795L18.1546 3.98119L18.3093 4.54146L17.1246 4.85656L17.9543 7.86163L17.2905 8.03819Z" fill="white"/>
<path d="M21.7657 7.28714L22.2864 3.62523L23.7941 3.83177C24.1187 3.87623 24.3887 3.96655 24.6042 4.10273C24.8231 4.23939 24.9815 4.41397 25.0794 4.62649C25.1773 4.839 25.2071 5.07953 25.1689 5.34807C25.1307 5.61661 25.0349 5.83992 24.8815 6.01801C24.7281 6.1961 24.527 6.32144 24.2783 6.39404C24.0331 6.46711 23.7482 6.48142 23.4236 6.43695L22.2929 6.28205L22.6419 6.00454L22.4462 7.38037L21.7657 7.28714ZM22.6315 6.07777L22.3747 5.70661L23.4741 5.85721C23.7742 5.89832 24.0082 5.86638 24.1762 5.76139C24.3481 5.65339 24.4504 5.4843 24.4831 5.25412C24.5164 5.02046 24.4651 4.83033 24.3294 4.68374C24.1972 4.53763 23.981 4.44402 23.6809 4.40291L22.5815 4.25231L22.9328 3.9591L22.6315 6.07777Z" fill="white"/>
<path d="M25.039 7.6054L28.1022 4.91464L28.721 5.18769L28.7081 9.2245L28.0507 8.93438L28.1292 5.32503L28.3806 5.43596L25.6868 7.89125L25.039 7.6054ZM26.0964 7.13648L26.4901 6.72115L28.3174 7.5275L28.2622 8.09216L26.0964 7.13648Z" fill="white"/>
<path d="M29.2277 9.62284L31.4842 6.69216L32.0359 7.10138L29.7794 10.032L29.2277 9.62284Z" fill="white"/>
<path d="M30.8871 10.7152L33.7507 8.37417L34.7969 9.60695C35.0568 9.91313 35.2247 10.2308 35.3007 10.5598C35.3768 10.8889 35.3631 11.2049 35.2598 11.5077C35.1565 11.8105 34.9603 12.0801 34.6712 12.3164C34.3848 12.5505 34.0792 12.6912 33.7544 12.7384C33.4322 12.7834 33.1132 12.7395 32.7971 12.6066C32.4811 12.4737 32.1932 12.2542 31.9333 11.948L30.8871 10.7152ZM31.7816 10.8711L32.3628 11.556C32.5429 11.7681 32.7388 11.9173 32.9505 12.0035C33.1646 12.0924 33.3805 12.1183 33.5985 12.0812C33.8187 12.0467 34.027 11.9492 34.2233 11.7887C34.4224 11.6259 34.5577 11.4425 34.6294 11.2384C34.706 11.0347 34.7191 10.8216 34.6687 10.5989C34.6206 10.3789 34.5065 10.1628 34.3264 9.95066L33.7452 9.26578L31.7816 10.8711Z" fill="white"/>
<mask id="path-9-outside-1_11_2282" maskUnits="userSpaceOnUse" x="16.8137" y="14.269" width="4.81296" height="6.48599" fill="black">
<rect fill="white" x="16.8137" y="14.269" width="4.81296" height="6.48599"/>
<path fill-rule="evenodd" clip-rule="evenodd" d="M18.8382 15.7036C18.826 15.6181 18.8854 15.5392 18.9709 15.5275L19.3254 15.4786C19.411 15.4668 19.4902 15.5265 19.5025 15.6119L19.537 15.8532C19.5483 15.9319 19.6169 15.9893 19.6964 15.9922C19.7452 15.9939 19.7939 15.9972 19.8426 16.002C19.9775 16.013 20.1034 16.0359 20.2202 16.0707C20.296 16.0933 20.336 16.1734 20.3162 16.2497L20.2315 16.5745C20.2082 16.6636 20.1133 16.7123 20.0243 16.6875C19.9359 16.663 19.8491 16.6456 19.7638 16.6353C19.626 16.6161 19.4949 16.6151 19.3705 16.6322C19.2597 16.6475 19.1722 16.6719 19.1081 16.7053C19.0436 16.736 18.9992 16.7722 18.9748 16.8138C18.9504 16.8554 18.9417 16.9002 18.9486 16.9484C18.9574 17.01 18.9929 17.0556 19.055 17.0853C19.1195 17.1119 19.2007 17.1307 19.2988 17.1417C19.3992 17.1497 19.5078 17.1579 19.6248 17.1664C19.7445 17.1744 19.8638 17.1894 19.9827 17.2112C20.1039 17.23 20.2162 17.2636 20.3196 17.3121C20.4227 17.358 20.5097 17.4265 20.5806 17.5177C20.6539 17.6059 20.701 17.7236 20.7221 17.8709C20.7455 18.0342 20.7199 18.192 20.6452 18.3442C20.5728 18.4934 20.4494 18.6224 20.2747 18.7311C20.2193 18.7661 20.1582 18.7974 20.0914 18.8251C20.0212 18.8542 19.9758 18.925 19.9866 19.0003L20.0192 19.2278C20.0314 19.3133 19.972 19.3921 19.8865 19.4039L19.532 19.4528C19.4465 19.4646 19.3672 19.4049 19.355 19.3194L19.3259 19.1162C19.3145 19.0369 19.245 18.9792 19.1649 18.9777C19.0794 18.976 18.9944 18.9702 18.9101 18.9603C18.7451 18.9384 18.6005 18.9047 18.4763 18.8591C18.4047 18.8328 18.3702 18.7543 18.3913 18.6813L18.4846 18.3578C18.5109 18.2666 18.6122 18.2205 18.7026 18.2505C18.7957 18.2815 18.8952 18.3064 19.0011 18.3253C19.1759 18.3531 19.3458 18.3556 19.5107 18.3328C19.6215 18.3175 19.7094 18.2959 19.7743 18.2678C19.8388 18.2371 19.8836 18.2036 19.9087 18.1673C19.9362 18.1281 19.9466 18.0857 19.9401 18.0402C19.9309 17.9759 19.8939 17.9292 19.8291 17.8999C19.7642 17.8706 19.6828 17.8504 19.5847 17.8394C19.4867 17.8283 19.3778 17.8188 19.2581 17.8107C19.1412 17.8023 19.0219 17.7874 18.9003 17.7659C18.7814 17.7441 18.6704 17.7103 18.5674 17.6644C18.464 17.6159 18.3756 17.5475 18.3024 17.4594C18.2287 17.3685 18.1811 17.2481 18.1597 17.0982C18.1355 16.9295 18.1596 16.7706 18.232 16.6214C18.307 16.4718 18.4319 16.3427 18.6065 16.2339C18.6578 16.202 18.7136 16.1731 18.7739 16.1472C18.843 16.1175 18.8874 16.0472 18.8768 15.9727L18.8382 15.7036Z"/>
</mask>
<path fill-rule="evenodd" clip-rule="evenodd" d="M18.8382 15.7036C18.826 15.6181 18.8854 15.5392 18.9709 15.5275L19.3254 15.4786C19.411 15.4668 19.4902 15.5265 19.5025 15.6119L19.537 15.8532C19.5483 15.9319 19.6169 15.9893 19.6964 15.9922C19.7452 15.9939 19.7939 15.9972 19.8426 16.002C19.9775 16.013 20.1034 16.0359 20.2202 16.0707C20.296 16.0933 20.336 16.1734 20.3162 16.2497L20.2315 16.5745C20.2082 16.6636 20.1133 16.7123 20.0243 16.6875C19.9359 16.663 19.8491 16.6456 19.7638 16.6353C19.626 16.6161 19.4949 16.6151 19.3705 16.6322C19.2597 16.6475 19.1722 16.6719 19.1081 16.7053C19.0436 16.736 18.9992 16.7722 18.9748 16.8138C18.9504 16.8554 18.9417 16.9002 18.9486 16.9484C18.9574 17.01 18.9929 17.0556 19.055 17.0853C19.1195 17.1119 19.2007 17.1307 19.2988 17.1417C19.3992 17.1497 19.5078 17.1579 19.6248 17.1664C19.7445 17.1744 19.8638 17.1894 19.9827 17.2112C20.1039 17.23 20.2162 17.2636 20.3196 17.3121C20.4227 17.358 20.5097 17.4265 20.5806 17.5177C20.6539 17.6059 20.701 17.7236 20.7221 17.8709C20.7455 18.0342 20.7199 18.192 20.6452 18.3442C20.5728 18.4934 20.4494 18.6224 20.2747 18.7311C20.2193 18.7661 20.1582 18.7974 20.0914 18.8251C20.0212 18.8542 19.9758 18.925 19.9866 19.0003L20.0192 19.2278C20.0314 19.3133 19.972 19.3921 19.8865 19.4039L19.532 19.4528C19.4465 19.4646 19.3672 19.4049 19.355 19.3194L19.3259 19.1162C19.3145 19.0369 19.245 18.9792 19.1649 18.9777C19.0794 18.976 18.9944 18.9702 18.9101 18.9603C18.7451 18.9384 18.6005 18.9047 18.4763 18.8591C18.4047 18.8328 18.3702 18.7543 18.3913 18.6813L18.4846 18.3578C18.5109 18.2666 18.6122 18.2205 18.7026 18.2505C18.7957 18.2815 18.8952 18.3064 19.0011 18.3253C19.1759 18.3531 19.3458 18.3556 19.5107 18.3328C19.6215 18.3175 19.7094 18.2959 19.7743 18.2678C19.8388 18.2371 19.8836 18.2036 19.9087 18.1673C19.9362 18.1281 19.9466 18.0857 19.9401 18.0402C19.9309 17.9759 19.8939 17.9292 19.8291 17.8999C19.7642 17.8706 19.6828 17.8504 19.5847 17.8394C19.4867 17.8283 19.3778 17.8188 19.2581 17.8107C19.1412 17.8023 19.0219 17.7874 18.9003 17.7659C18.7814 17.7441 18.6704 17.7103 18.5674 17.6644C18.464 17.6159 18.3756 17.5475 18.3024 17.4594C18.2287 17.3685 18.1811 17.2481 18.1597 17.0982C18.1355 16.9295 18.1596 16.7706 18.232 16.6214C18.307 16.4718 18.4319 16.3427 18.6065 16.2339C18.6578 16.202 18.7136 16.1731 18.7739 16.1472C18.843 16.1175 18.8874 16.0472 18.8768 15.9727L18.8382 15.7036Z" fill="white"/>
<path d="M19.8426 16.002L19.8389 16.0409L19.8396 16.0409L19.8426 16.002ZM19.7638 16.6353L19.7585 16.674L19.7593 16.6741L19.7638 16.6353ZM19.1081 16.7053L19.1251 16.7406L19.1264 16.7399L19.1081 16.7053ZM18.9748 16.8138L18.941 16.7939L18.941 16.7939L18.9748 16.8138ZM19.055 17.0853L19.0383 17.1205L19.0402 17.1213L19.055 17.0853ZM19.2988 17.1417L19.2946 17.1806L19.2959 17.1807L19.2988 17.1417ZM19.6248 17.1664L19.6222 17.2053L19.6224 17.2053L19.6248 17.1664ZM19.9827 17.2112L19.9758 17.2496L19.9769 17.2498L19.9827 17.2112ZM20.3196 17.3121L20.3031 17.3475L20.3039 17.3478L20.3196 17.3121ZM20.5806 17.5177L20.5497 17.5416L20.5506 17.5426L20.5806 17.5177ZM20.6452 18.3442L20.6101 18.3269L20.61 18.3271L20.6452 18.3442ZM20.2747 18.7311L20.2539 18.6979L20.2537 18.6981L20.2747 18.7311ZM18.9101 18.9603L18.9051 18.999L18.9057 18.9991L18.9101 18.9603ZM19.0011 18.3253L18.9944 18.3638L18.9951 18.3639L19.0011 18.3253ZM19.7743 18.2678L19.79 18.3037L19.7912 18.3031L19.7743 18.2678ZM19.9087 18.1673L19.8766 18.1449L19.8765 18.145L19.9087 18.1673ZM19.8291 17.8999L19.8131 17.9354L19.8291 17.8999ZM19.5847 17.8394L19.5889 17.8006L19.5889 17.8006L19.5847 17.8394ZM19.2581 17.8107L19.2555 17.8497L19.2557 17.8497L19.2581 17.8107ZM18.9003 17.7659L18.8934 17.8043L18.8937 17.8044L18.9003 17.7659ZM18.5674 17.6644L18.5509 17.6997L18.5516 17.7001L18.5674 17.6644ZM18.3024 17.4594L18.272 17.4838L18.2723 17.4842L18.3024 17.4594ZM18.232 16.6214L18.197 16.6038L18.1968 16.6042L18.232 16.6214ZM18.6065 16.2339L18.6273 16.2671L18.6273 16.2671L18.6065 16.2339ZM19.537 15.8532L19.4983 15.8585L19.537 15.8532ZM18.4763 18.8591L18.4629 18.8957L18.4763 18.8591ZM18.3913 18.6813L18.3537 18.6703L18.3913 18.6813ZM20.0192 19.2278L19.9805 19.2331L20.0192 19.2278ZM19.8865 19.4039L19.8809 19.3652L19.8865 19.4039ZM20.0914 18.8251L20.1065 18.8612L20.0914 18.8251ZM19.9866 19.0003L20.0253 18.995L19.9866 19.0003ZM18.7026 18.2505L18.6905 18.2876L18.7026 18.2505ZM20.3162 16.2497L20.2783 16.2396L20.3162 16.2497ZM19.3254 15.4786L19.331 15.5172L19.3254 15.4786ZM19.5025 15.6119L19.5412 15.6066L19.5025 15.6119ZM19.1649 18.9777L19.1643 19.0167L19.1649 18.9777ZM18.9709 15.5275L18.9765 15.5661L18.9709 15.5275ZM18.8382 15.7036L18.7995 15.7089L18.8382 15.7036ZM20.2315 16.5745L20.1936 16.5645L20.2315 16.5745ZM20.0243 16.6875L20.014 16.7252L20.0243 16.6875ZM19.532 19.4528L19.5375 19.4915L19.532 19.4528ZM19.3199 15.4399L18.9654 15.4888L18.9765 15.5661L19.331 15.5172L19.3199 15.4399ZM19.5757 15.8479L19.5412 15.6066L19.4637 15.6173L19.4983 15.8585L19.5757 15.8479ZM19.8463 15.9631C19.7968 15.9583 19.7472 15.9549 19.6976 15.9531L19.6952 16.0312C19.7432 16.0329 19.7911 16.0362 19.8389 16.0409L19.8463 15.9631ZM20.2312 16.0333C20.1115 15.9976 19.9829 15.9742 19.8456 15.9631L19.8396 16.0409C19.9721 16.0517 20.0953 16.0741 20.2092 16.1081L20.2312 16.0333ZM20.2693 16.5845L20.354 16.2597L20.2783 16.2396L20.1936 16.5645L20.2693 16.5845ZM19.7593 16.6741C19.8425 16.6841 19.9274 16.7011 20.014 16.7252L20.0346 16.6499C19.9444 16.6249 19.8556 16.6071 19.7683 16.5966L19.7593 16.6741ZM19.3761 16.6709C19.4965 16.6543 19.6239 16.6552 19.7586 16.674L19.769 16.5966C19.628 16.577 19.4933 16.5759 19.365 16.5935L19.3761 16.6709ZM19.1264 16.7399C19.185 16.7094 19.2675 16.6859 19.3761 16.6709L19.365 16.5935C19.2519 16.6092 19.1595 16.6344 19.0899 16.6706L19.1264 16.7399ZM19.0086 16.8336C19.0276 16.8012 19.0644 16.7695 19.1251 16.7406L19.0911 16.67C19.0228 16.7026 18.9708 16.7431 18.941 16.7939L19.0086 16.8336ZM18.9873 16.9431C18.9817 16.9036 18.9887 16.8676 19.0086 16.8336L18.941 16.7939C18.9122 16.8432 18.9018 16.8969 18.9099 16.9538L18.9873 16.9431ZM19.0718 17.05C19.02 17.0254 18.9941 16.9901 18.9873 16.9431L18.9099 16.9538C18.9208 17.0299 18.9658 17.0859 19.0383 17.1205L19.0718 17.05ZM19.303 17.1029C19.2072 17.0921 19.1298 17.0739 19.0698 17.0492L19.0402 17.1213C19.1092 17.1498 19.1943 17.1692 19.2946 17.1805L19.303 17.1029ZM19.6274 17.1274C19.5105 17.119 19.402 17.1108 19.3017 17.1028L19.2959 17.1807C19.3964 17.1887 19.5051 17.1969 19.6222 17.2053L19.6274 17.1274ZM19.9896 17.1728C19.8692 17.1507 19.7484 17.1356 19.6273 17.1274L19.6224 17.2053C19.7406 17.2133 19.8584 17.2281 19.9758 17.2496L19.9896 17.1728ZM20.3361 17.2768C20.2291 17.2266 20.1131 17.1919 19.9885 17.1726L19.9769 17.2498C20.0947 17.268 20.2033 17.3007 20.3031 17.3475L20.3361 17.2768ZM20.6114 17.4939C20.5366 17.3977 20.4445 17.325 20.3354 17.2765L20.3039 17.3478C20.4008 17.3909 20.4827 17.4554 20.5498 17.5416L20.6114 17.4939ZM20.7608 17.8655C20.739 17.7132 20.6898 17.5881 20.6106 17.4929L20.5506 17.5426C20.618 17.6237 20.663 17.734 20.6834 17.8762L20.7608 17.8655ZM20.6803 18.3615C20.7583 18.2025 20.7854 18.0368 20.7608 17.8655L20.6834 17.8762C20.7056 18.0315 20.6814 18.1814 20.6101 18.3269L20.6803 18.3615ZM20.2955 18.7643C20.4749 18.6526 20.6042 18.5186 20.6804 18.3614L20.61 18.3271C20.5415 18.4683 20.4238 18.5922 20.2539 18.6979L20.2955 18.7643ZM20.1065 18.8612C20.1751 18.8327 20.2382 18.8004 20.2957 18.7642L20.2537 18.6981C20.2003 18.7317 20.1412 18.7621 20.0762 18.789L20.1065 18.8612ZM19.9479 19.0056L19.9805 19.2331L20.0579 19.2225L20.0253 18.995L19.9479 19.0056ZM19.8809 19.3652L19.5264 19.4141L19.5375 19.4915L19.892 19.4426L19.8809 19.3652ZM19.3937 19.3141L19.3646 19.1108L19.2871 19.1215L19.3162 19.3248L19.3937 19.3141ZM18.9057 18.9991C18.9913 19.0092 19.0776 19.015 19.1643 19.0167L19.1655 18.9386C19.0812 18.937 18.9975 18.9313 18.9145 18.9215L18.9057 18.9991ZM18.4629 18.8957C18.5904 18.9425 18.738 18.9769 18.9051 18.999L18.915 18.9216C18.7522 18.9 18.6105 18.8668 18.4896 18.8224L18.4629 18.8957ZM18.447 18.3468L18.3537 18.6703L18.4288 18.6923L18.5222 18.3688L18.447 18.3468ZM19.0078 18.2869C18.9036 18.2683 18.8059 18.2438 18.7148 18.2135L18.6905 18.2876C18.7855 18.3192 18.8868 18.3446 18.9944 18.3638L19.0078 18.2869ZM19.5051 18.2941C19.3443 18.3163 19.1783 18.3139 19.007 18.2867L18.9951 18.3639C19.1735 18.3922 19.3473 18.3948 19.5162 18.3715L19.5051 18.2941ZM19.7586 18.2319C19.6982 18.258 19.6142 18.2791 19.5051 18.2941L19.5162 18.3715C19.6288 18.356 19.7205 18.3337 19.79 18.3036L19.7586 18.2319ZM19.8765 18.145C19.8569 18.1732 19.8191 18.2031 19.7573 18.2325L19.7912 18.3031C19.8585 18.271 19.9102 18.2339 19.9409 18.1897L19.8765 18.145ZM19.9014 18.0455C19.9065 18.0808 19.8987 18.1133 19.8766 18.1449L19.9408 18.1898C19.9737 18.1429 19.9868 18.0906 19.9788 18.0348L19.9014 18.0455ZM19.8131 17.9354C19.867 17.9598 19.8943 17.996 19.9014 18.0455L19.9788 18.0348C19.9675 17.9559 19.9208 17.8985 19.845 17.8643L19.8131 17.9354ZM19.5805 17.8782C19.676 17.889 19.7531 17.9084 19.8131 17.9354L19.845 17.8643C19.7753 17.8328 19.6896 17.8119 19.5889 17.8006L19.5805 17.8782ZM19.2557 17.8497C19.3749 17.8577 19.4832 17.8672 19.5805 17.8782L19.5889 17.8006C19.4902 17.7895 19.3807 17.7799 19.2606 17.7718L19.2557 17.8497ZM18.8937 17.8044C19.0165 17.826 19.1371 17.8411 19.2555 17.8497L19.2608 17.7718C19.1452 17.7634 19.0272 17.7487 18.9069 17.7274L18.8937 17.8044ZM18.5516 17.7001C18.6577 17.7473 18.7717 17.782 18.8934 17.8043L18.9072 17.7275C18.7911 17.7062 18.6832 17.6732 18.5832 17.6287L18.5516 17.7001ZM18.2723 17.4842C18.3493 17.5768 18.4422 17.6487 18.5509 17.6997L18.5839 17.6291C18.4857 17.583 18.402 17.5182 18.3324 17.4345L18.2723 17.4842ZM18.121 17.1035C18.1431 17.2584 18.1927 17.3861 18.272 17.4838L18.3327 17.4349C18.2647 17.3509 18.2192 17.2378 18.1984 17.0929L18.121 17.1035ZM18.1968 16.6042C18.1209 16.7606 18.0957 16.9274 18.121 17.1035L18.1984 17.0929C18.1753 16.9317 18.1983 16.7806 18.2672 16.6386L18.1968 16.6042ZM18.5857 16.2008C18.4064 16.3124 18.2759 16.4465 18.197 16.6038L18.267 16.639C18.3382 16.4971 18.4574 16.3729 18.6273 16.2671L18.5857 16.2008ZM18.7583 16.1113C18.6964 16.1379 18.6388 16.1677 18.5857 16.2008L18.6273 16.2671C18.6768 16.2363 18.7309 16.2083 18.7895 16.1831L18.7583 16.1113ZM18.7995 15.7089L18.8381 15.978L18.9155 15.9673L18.877 15.6982L18.7995 15.7089ZM18.7895 16.1831C18.8729 16.1473 18.9289 16.0612 18.9155 15.9673L18.8381 15.978C18.846 16.0332 18.8131 16.0878 18.7583 16.1113L18.7895 16.1831ZM19.4983 15.8585C19.5125 15.9574 19.5981 16.0277 19.6952 16.0312L19.6976 15.9531C19.6357 15.9509 19.5841 15.9064 19.5757 15.8479L19.4983 15.8585ZM18.4896 18.8224C18.4397 18.8041 18.4128 18.748 18.4288 18.6923L18.3537 18.6703C18.3276 18.7606 18.3697 18.8615 18.4629 18.8957L18.4896 18.8224ZM19.9805 19.2331C19.9896 19.2972 19.9451 19.3564 19.8809 19.3652L19.892 19.4426C19.9989 19.4279 20.0732 19.3293 20.0579 19.2225L19.9805 19.2331ZM20.0762 18.789C19.9916 18.8241 19.9343 18.9108 19.9479 19.0056L20.0253 18.995C20.0174 18.9393 20.0509 18.8842 20.1065 18.8612L20.0762 18.789ZM18.5222 18.3688C18.5416 18.3012 18.6185 18.2637 18.6905 18.2876L18.7148 18.2135C18.6058 18.1773 18.4801 18.2319 18.447 18.3468L18.5222 18.3688ZM20.2092 16.1081C20.2625 16.124 20.2935 16.1815 20.2783 16.2396L20.354 16.2597C20.3786 16.1653 20.3294 16.0625 20.2312 16.0333L20.2092 16.1081ZM19.331 15.5172C19.3951 15.5084 19.4546 15.5532 19.4637 15.6173L19.5412 15.6066C19.5259 15.4998 19.4268 15.4251 19.3199 15.4399L19.331 15.5172ZM19.3646 19.1108C19.3503 19.0113 19.2636 18.9405 19.1655 18.9386L19.1643 19.0167C19.2265 19.0179 19.2787 19.0625 19.2871 19.1215L19.3646 19.1108ZM18.9654 15.4888C18.8585 15.5035 18.7842 15.6021 18.7995 15.7089L18.877 15.6982C18.8678 15.6341 18.9123 15.575 18.9765 15.5661L18.9654 15.4888ZM20.1936 16.5645C20.1764 16.6305 20.1047 16.6694 20.0346 16.6499L20.014 16.7252C20.1219 16.7551 20.2401 16.6967 20.2693 16.5845L20.1936 16.5645ZM19.5264 19.4141C19.4623 19.423 19.4029 19.3782 19.3937 19.3141L19.3162 19.3248C19.3315 19.4316 19.4306 19.5063 19.5375 19.4915L19.5264 19.4141Z" fill="white" mask="url(#path-9-outside-1_11_2282)"/>
<path d="M12.0896 17.4474C12.0896 17.4474 13.3468 16.9934 14.3107 16.7377C15.2747 16.482 16.5565 16.2 16.5565 16.2" stroke="white" stroke-width="0.938015" stroke-linecap="round"/>
<path d="M10.7761 19.7238C10.7761 19.7238 11.6699 19.286 13.5016 18.7193C15.3334 18.1525 16.1503 18.0531 16.1503 18.0531" stroke="white" stroke-width="0.938015" stroke-linecap="round"/>
<path d="M13.6655 20.4857C13.6655 20.4857 14.2381 20.2419 15.0828 20.0271C15.9275 19.8124 16.4147 19.7206 16.4147 19.7206" stroke="white" stroke-width="0.938015" stroke-linecap="round"/>
<path d="M11.0462 21.464C11.0462 21.464 11.3814 21.3046 11.669 21.1909C11.9565 21.0773 12.3138 20.9472 12.3138 20.9472" stroke="white" stroke-width="0.938015" stroke-linecap="round"/>
<path fill-rule="evenodd" clip-rule="evenodd" d="M26.2543 16.4086C27.0874 16.4441 27.7575 16.4957 28.1573 16.5309L28.3519 22.4499C27.258 22.2533 24.7524 21.8885 21.7835 22.0198C19.7901 22.1079 18.1131 22.3732 16.9326 22.617C16.3421 22.7389 15.8752 22.8555 15.5543 22.9422C15.5011 22.9566 15.452 22.9702 15.4069 22.9828C15.316 23.0082 15.2418 23.0299 15.1852 23.0468C15.1428 23.0594 15.1102 23.0694 15.0879 23.0764L15.0619 23.0846L15.0548 23.0869L15.0526 23.0876L15.0519 23.0878L15.0517 23.0879C15.0516 23.0879 15.0515 23.088 15.198 23.5339L15.0515 23.088C14.8054 23.1681 14.6714 23.4326 14.7524 23.6789C14.8333 23.9251 15.0983 24.0598 15.3444 23.9798L15.3446 23.9797L15.3452 23.9795L15.3497 23.9781L15.3703 23.9716C15.3891 23.9657 15.4179 23.9568 15.4565 23.9453C15.5337 23.9223 15.6497 23.8887 15.8019 23.8475C16.1062 23.7653 16.5548 23.6531 17.1252 23.5353C18.2666 23.2997 19.8934 23.0421 21.8279 22.9566C25.2951 22.8033 28.1138 23.3495 28.6481 23.4615C29.0069 23.5368 29.317 23.2514 29.3057 22.9087L29.0837 16.1578C29.0753 15.904 28.8862 15.6604 28.5937 15.6305L28.5474 16.0959L28.5937 15.6305C28.3518 15.6057 27.4693 15.5209 26.2543 15.4701V16.4086Z" fill="white"/>
<path d="M26.2631 16.3578C27.1216 16.3946 27.806 16.4483 28.1989 16.4835L28.3971 22.5116C27.3339 22.3179 24.7984 21.9395 21.7853 22.0727C19.7942 22.1607 18.1192 22.4257 16.9402 22.6691C16.3505 22.7909 15.8843 22.9074 15.5641 22.9939C15.404 23.0372 15.2803 23.073 15.1959 23.0982C15.1537 23.1108 15.1213 23.1208 15.099 23.1277C15.0879 23.1312 15.0793 23.1339 15.0733 23.1358L15.0663 23.1381L15.0633 23.139C15.0632 23.1391 15.0631 23.1391 15.1967 23.5347L15.0631 23.1391C14.8405 23.2115 14.7199 23.4474 14.7937 23.6659C14.8675 23.8843 15.1077 24.0027 15.3302 23.9303L15.3311 23.9301L15.3358 23.9286C15.3401 23.9272 15.3471 23.925 15.3565 23.922C15.3755 23.9161 15.4045 23.9072 15.4432 23.8956C15.5207 23.8725 15.637 23.8388 15.7895 23.7976C16.0945 23.7152 16.5438 23.6028 17.115 23.4848C18.2579 23.2489 19.8867 22.991 21.8235 22.9054C25.3127 22.7511 28.1458 23.3043 28.6609 23.4127C28.9826 23.4805 29.2705 23.2307 29.2603 22.9206L29.0377 16.1512C29.0303 15.9278 28.8617 15.7112 28.5969 15.684C28.366 15.6602 27.4834 15.5747 26.2631 15.5234V16.333L28.5527 16.0985L28.5526 16.0991L26.2631 16.3334V16.3578Z" fill="white"/>
<path d="M28.8133 18.9421C29.7455 19.2273 30.4966 19.4826 30.9223 19.6317L28.9778 25.4549C28.1371 25.0801 26.2009 24.3224 23.9217 24.1354C22.4175 24.012 21.1395 24.0208 20.236 24.0605C19.7841 24.0804 19.4255 24.108 19.1785 24.1309C19.055 24.1423 18.9594 24.1526 18.894 24.16C18.8614 24.1638 18.8362 24.1668 18.8189 24.169C18.8102 24.17 18.8035 24.1709 18.7988 24.1715L18.7933 24.1722L18.7916 24.1724L18.7911 24.1725L18.7909 24.1725C18.7908 24.1725 18.7907 24.1726 18.8483 24.5855L18.7907 24.1726C18.5584 24.2037 18.3958 24.4139 18.4275 24.6419C18.4593 24.87 18.6734 25.0296 18.9058 24.9984L18.9063 24.9984L18.9098 24.9979C18.9131 24.9975 18.9184 24.9968 18.9256 24.9959C18.9401 24.9941 18.9624 24.9914 18.9922 24.988C19.0517 24.9812 19.1411 24.9716 19.2582 24.9608C19.4925 24.9391 19.8372 24.9124 20.2741 24.8932C21.1481 24.8548 22.3891 24.8461 23.851 24.9661C26.4322 25.1779 28.5626 26.1734 28.966 26.3723C29.2438 26.5093 29.5678 26.3646 29.66 26.0883L31.8363 19.5709C31.9125 19.3427 31.8093 19.0622 31.5396 18.9645C31.295 18.876 30.342 18.5362 29.0475 18.1406L28.8133 18.9421Z" fill="white"/>
<path d="M13.0609 15.3404C13.0609 15.3404 15.4109 14.5252 18.9146 14.0419C22.1487 13.5958 25.4381 13.7397 25.9253 13.7645C25.9626 13.7664 25.9909 13.7944 25.9962 13.8314L26.9585 20.5521C26.9655 20.6009 26.9267 20.6439 26.8773 20.6414C26.2931 20.6119 23.0984 20.4794 19.8996 20.9206C16.3608 21.4087 13.0241 22.5704 13.0241 22.5704" stroke="white" stroke-width="0.93791" stroke-linecap="round"/>
<path d="M6.92646 31.1391C6.7469 30.9129 6.60719 30.6717 6.50733 30.4155C6.41026 30.1572 6.36533 29.9278 6.37252 29.7272L6.94431 29.5894C6.94393 29.7759 6.98084 29.9782 7.05503 30.1963C7.12923 30.4145 7.23749 30.6132 7.37983 30.7926C7.50026 30.9443 7.6145 31.0543 7.72253 31.1224C7.83057 31.1906 7.93009 31.2253 8.02109 31.2267C8.1149 31.2259 8.19818 31.1977 8.27094 31.1421C8.3605 31.0736 8.40668 30.9873 8.40949 30.8832C8.4151 30.777 8.39278 30.661 8.34254 30.5354C8.2973 30.4104 8.2394 30.2751 8.16884 30.1295C8.10048 29.9867 8.03522 29.8394 7.97306 29.6874C7.91589 29.536 7.87618 29.3868 7.85393 29.2398C7.83667 29.0934 7.85323 28.95 7.90361 28.8095C7.954 28.669 8.05755 28.5388 8.21427 28.419C8.37379 28.2971 8.55216 28.2272 8.74938 28.2095C8.9516 28.1923 9.15976 28.2393 9.37389 28.3505C9.593 28.4623 9.80766 28.6506 10.0179 28.9155C10.1558 29.0894 10.2703 29.2789 10.3613 29.4843C10.4523 29.6896 10.5062 29.8878 10.5229 30.0789L9.96428 30.2333C9.93972 30.0437 9.89089 29.866 9.81778 29.7002C9.74747 29.5323 9.66196 29.3849 9.56123 29.258C9.44298 29.109 9.32844 29.0015 9.21761 28.9355C9.10897 28.8722 9.00774 28.841 8.91394 28.8418C8.82232 28.8453 8.73873 28.8759 8.66317 28.9337C8.57362 29.0022 8.52494 29.0881 8.51715 29.1916C8.51434 29.2958 8.53696 29.4092 8.585 29.5321C8.63524 29.6577 8.69423 29.7944 8.76199 29.9421C8.83254 30.0877 8.8978 30.2351 8.95777 30.3843C9.01993 30.5363 9.06104 30.6844 9.0811 30.8287C9.10335 30.9757 9.08819 31.118 9.03561 31.2558C8.98523 31.3963 8.88308 31.5253 8.72916 31.643C8.57244 31.7628 8.39297 31.8313 8.19076 31.8484C7.99353 31.8662 7.78537 31.8192 7.56625 31.7074C7.34994 31.5935 7.13668 31.404 6.92646 31.1391Z" fill="white"/>
<path d="M8.77676 33.3805L12.3557 31.4152L12.9019 31.8141L12.0152 35.7462L11.4349 35.3223L12.2933 31.821L12.5152 31.9831L9.34849 33.7982L8.77676 33.3805ZM9.91266 33.1504L10.3877 32.83L12.0005 34.0082L11.8241 34.5468L9.91266 33.1504Z" fill="white"/>
<path d="M13.5914 36.6725L14.7795 33.1698L15.3169 33.3454L15.9866 36.4045L15.7053 36.3126L18.0844 34.2496L18.6218 34.4252L17.4388 37.9296L16.821 37.7277L17.6765 35.1891L17.8071 35.2317L15.7965 36.9483L15.5052 36.8531L14.9241 34.2898L15.0747 34.339L14.2142 36.876L13.5914 36.6725Z" fill="white"/>
<path d="M20.1795 36.1039L22.018 36.1387L22.0068 36.704L20.1684 36.6692L20.1795 36.1039ZM20.2011 37.6898L22.2879 37.7293L22.2766 38.3051L19.503 38.2526L19.5758 34.5545L22.2754 34.6057L22.264 35.1815L20.2512 35.1434L20.2011 37.6898Z" fill="white"/>
<path d="M26.818 37.5821L25.3285 34.1965L26.8172 33.5656C27.1869 33.4089 27.5425 33.3424 27.8838 33.366C28.2252 33.3897 28.529 33.4943 28.7953 33.6798C29.0617 33.8653 29.27 34.129 29.4204 34.4708C29.5693 34.8093 29.622 35.139 29.5784 35.4597C29.5333 35.7771 29.4026 36.0659 29.1861 36.326C28.9695 36.5861 28.6764 36.7945 28.3067 36.9512L26.818 37.5821ZM27.2164 36.782L28.0434 36.4315C28.2996 36.3229 28.4989 36.1811 28.6412 36.006C28.7868 35.8296 28.8715 35.633 28.8955 35.4162C28.9227 35.1981 28.8852 34.973 28.7831 34.7409C28.6795 34.5055 28.5382 34.3243 28.3593 34.1974C28.1821 34.0659 27.9782 33.9917 27.7476 33.9747C27.5201 33.9563 27.2783 34.0014 27.0221 34.11L26.195 34.4605L27.2164 36.782Z" fill="white"/>
<path d="M31.3884 35.5005L30.2414 31.6394L30.7604 31.2056L34.4656 32.9285L33.9142 33.3894L30.6304 31.7894L30.8412 31.6132L31.9317 35.0464L31.3884 35.5005ZM31.4153 34.3626L31.204 33.8369L32.7365 32.556L33.2316 32.8445L31.4153 34.3626Z" fill="white"/>
<path d="M36.0673 30.9147L34.846 30.1081L35.2854 30.2146L32.1593 30.0747L32.5746 29.469L35.0893 29.585L34.8563 29.9249L33.8056 27.6735L34.1881 27.1156L35.4975 29.9052L35.2344 29.5415L36.4557 30.3481L36.0673 30.9147Z" fill="white"/>
<path fill-rule="evenodd" clip-rule="evenodd" d="M5.50903 20.7967C5.50903 18.0974 6.2133 15.5595 7.45133 13.3505L7.81854 13.7105C6.66093 15.821 6.0044 18.2344 6.0044 20.7967C6.0044 22.8173 6.41267 24.7453 7.15297 26.5051L6.77371 26.8789C5.95968 25.0119 5.50903 22.9559 5.50903 20.7967ZM35.8056 26.8042C36.5993 24.9571 37.038 22.9272 37.038 20.7967C37.038 18.2938 36.4325 15.9298 35.3574 13.8379L34.9757 14.181C35.9791 16.1768 36.5426 18.4228 36.5426 20.7967C36.5426 22.7971 36.1425 24.7067 35.4161 26.4523L35.8056 26.8042Z" fill="white"/>
</svg>
