<svg width="18" height="17" viewBox="0 0 18 17" fill="none" xmlns="http://www.w3.org/2000/svg">
<mask id="path-1-outside-1_11_2279" maskUnits="userSpaceOnUse" x="0.484375" y="0.805908" width="17" height="15" fill="black">
<rect fill="white" x="0.484375" y="0.805908" width="17" height="15"/>
<path d="M15.2429 2.95811C14.4738 2.18998 13.4657 1.80591 12.4575 1.80591C11.4494 1.80591 10.4413 2.18998 9.6722 2.95811L8.9405 3.68885L8.20881 2.95811C7.43967 2.18998 6.4316 1.80591 5.42353 1.80591C4.4153 1.80591 3.40723 2.18998 2.63809 2.95811C1.0998 4.49439 1.0998 6.98529 2.63809 8.52156L8.9405 14.8157L15.2429 8.52156C16.7812 6.98529 16.7812 4.49439 15.2429 2.95811Z"/>
</mask>
<path d="M9.6722 2.95811L9.25747 2.54285V2.54285L9.6722 2.95811ZM8.9405 3.68885L8.52578 4.10412L8.9405 4.5183L9.35522 4.10412L8.9405 3.68885ZM8.20881 2.95811L8.62353 2.54285V2.54285L8.20881 2.95811ZM2.63809 8.52156L3.05281 8.10629L2.63809 8.52156ZM8.9405 14.8157L8.52578 15.231L8.9405 15.6452L9.35522 15.231L8.9405 14.8157ZM15.2429 8.52156L15.6576 8.93682L15.2429 8.52156ZM15.6576 2.54285C14.774 1.66032 13.6147 1.21902 12.4575 1.21902V2.3928C13.3167 2.3928 14.1736 2.71964 14.8282 3.37338L15.6576 2.54285ZM12.4575 1.21902C11.3004 1.21902 10.1411 1.66032 9.25747 2.54285L10.0869 3.37338C10.7415 2.71963 11.5985 2.3928 12.4575 2.3928V1.21902ZM9.25747 2.54285L8.52578 3.27359L9.35522 4.10412L10.0869 3.37338L9.25747 2.54285ZM9.35522 3.27359L8.62353 2.54285L7.79408 3.37338L8.52578 4.10412L9.35522 3.27359ZM8.62353 2.54285C7.73985 1.66032 6.58065 1.21902 5.42353 1.21902V2.3928C6.28255 2.3928 7.13948 2.71963 7.79408 3.37338L8.62353 2.54285ZM5.42353 1.21902C4.26626 1.21902 3.10705 1.66032 2.22336 2.54285L3.05281 3.37338C3.70741 2.71964 4.56433 2.3928 5.42353 2.3928V1.21902ZM2.22336 2.54285C0.455525 4.30838 0.455525 7.17129 2.22336 8.93682L3.05281 8.10629C1.74408 6.79928 1.74408 4.68039 3.05281 3.37338L2.22336 2.54285ZM2.22336 8.93682L8.52578 15.231L9.35522 14.4005L3.05281 8.10629L2.22336 8.93682ZM9.35522 15.231L15.6576 8.93682L14.8282 8.10629L8.52578 14.4005L9.35522 15.231ZM15.6576 8.93682C17.4255 7.17129 17.4255 4.30838 15.6576 2.54285L14.8282 3.37338C16.1369 4.68039 16.1369 6.79928 14.8282 8.10629L15.6576 8.93682Z" fill="#D9D9D9" mask="url(#path-1-outside-1_11_2279)"/>
</svg>
