<svg width="32" height="32" viewBox="0 0 32 32" fill="none" xmlns="http://www.w3.org/2000/svg">
<path d="M31.9978 16.0006C31.9978 24.0816 26.0078 30.7623 18.2265 31.8464C17.4989 31.9473 16.7545 32 15.9989 32C15.1267 32 14.2702 31.9305 13.4361 31.796C5.81838 30.5695 0 23.9638 0 16.0006C0 7.16393 7.16368 0 16 0C24.8363 0 32 7.16393 32 16.0006H31.9978Z" fill="white"/>
<path d="M6.48878 7.05737L13.8677 16.9232L6.44281 24.9448H8.11434L14.6155 17.9221L19.8677 24.9448H25.5549L17.7612 14.524L24.6726 7.05737H23.0011L17.0146 13.5251L12.1771 7.05737H6.48989H6.48878ZM8.94617 8.28836H11.5583L23.0953 23.7138H20.4832L8.94617 8.28836Z" fill="black"/>
</svg>
